<?xml version="1.0" standalone="no"?>
<!DOCTYPE svg PUBLIC "-//W3C//DTD SVG 1.1//EN" "http://www.w3.org/Graphics/SVG/1.1/DTD/svg11.dtd">
<svg xmlns="http://www.w3.org/2000/svg" xmlns:xlink="http://www.w3.org/1999/xlink" version="1.1" id="Capa_1" x="0px" y="0px" viewBox="0 0 275 98.7" style="enable-background:new 0 0 275 98.7;" xml:space="preserve" width="275" height="98.69999694824219">
<style type="text/css">
	.st0{fill:#525252;}
	.st1{fill:#313131;}
	.st2{fill:#7D7D7D;}
	.st3{fill:#D16A5E;}
</style>
<g id="XMLID_15_">
	<g id="XMLID_130_">
		<polygon id="XMLID_181_" class="st0" points="24.3,30.3 24.3,38 48.6,49.6 66.5,33 61.7,21.3 36.6,20.5   "/>
		<polygon id="XMLID_180_" class="st1" points="51.1,19.8 60.7,20.1 59.9,19   "/>
		<polygon id="XMLID_179_" class="st0" points="24.9,60.2 29.6,42.1 24.4,39.5   "/>
		<polygon id="XMLID_178_" class="st2" points="30.6,42.6 32.5,43.6 30.6,60.7 26.3,65.5 25.3,62.8   "/>
		<polygon id="XMLID_160_" class="st1" points="24.2,62.7 24.9,65.8 20.6,65.3 21.9,63.1   "/>
		<polygon id="XMLID_159_" class="st2" points="20.9,62.7 18.3,60 19.8,64.9   "/>
		<polygon id="XMLID_158_" class="st0" points="41.3,47.6 42.7,48.3 46.8,72.5 43.3,71.3   "/>
		<polygon id="XMLID_136_" class="st2" points="43.9,48.7 48.4,75.9 67.4,58.8 58.4,48.1 49,51.3   "/>
		<polygon id="XMLID_135_" class="st0" points="49.4,76.4 54.2,77.6 56.9,69.8   "/>
		<polygon id="XMLID_133_" class="st1" points="58.3,42.3 58.3,47.1 50.6,49.5   "/>
		<polygon id="XMLID_132_" class="st0" points="59.5,41.3 67.8,33.4 66.3,29.7 82.2,36.5 91.2,49.9 82.5,75.7 59.2,47.4   "/>
		<polygon id="XMLID_131_" class="st1" points="89.9,56.4 92.6,75.5 83.6,75.9   "/>
	</g>
	<g id="XMLID_89_">
		<g id="XMLID_269_">
			<path id="XMLID_287_" class="st1" d="M104.9,19.1h5V32h13.6V19.1h5v30h-5V36.3h-13.6v12.8h-5V19.1z"/>
			<path id="XMLID_284_" class="st1" d="M133.9,44.9V32.1l4.2-4.3h11.6l4.3,4.3v8h-15.3v3.4l1.6,1.6h7.3l1.5-1.6v-1.3h4.8V45     l-4.2,4.2h-11.8L133.9,44.9z M149.2,36.5v-3l-1.7-1.7h-7.2l-1.7,1.7v3H149.2z"/>
			<path id="XMLID_281_" class="st1" d="M178.9,27.8v26.4l-4.4,4.4h-11.3l-3.7-3.7V52h4.8v1.4l1.1,1.1h7l1.7-1.7v-6.7l-3.3,3h-8     l-4.2-4.3V32.1l4.2-4.3h8.3l3.3,3.2v-3.2H178.9z M174.1,35.2l-3.4-3.2h-5.4l-1.8,1.8v9.4l1.8,1.8h5.1l3.8-3.7V35.2z"/>
			<path id="XMLID_278_" class="st1" d="M204.5,27.8v26.4l-4.4,4.4h-11.3l-3.7-3.7V52h4.8v1.4l1.1,1.1h7l1.7-1.7v-6.7l-3.3,3h-8     l-4.2-4.3V32.1l4.2-4.3h8.3l3.3,3.2v-3.2H204.5z M199.6,35.2l-3.4-3.2h-5.4l-1.8,1.8v9.4l1.8,1.8h5.1l3.8-3.7V35.2z"/>
			<path id="XMLID_275_" class="st1" d="M209.4,45.3v-5.1l3.8-3.8h11v-3.2l-1.6-1.6h-6.7l-1.6,1.6v1.4h-4.8v-2.5l4.4-4.4h10.7     l4.4,4.4v16.9h-4.4v-3.3l-3.4,3.3h-7.9L209.4,45.3z M220.7,45.3l3.6-3.4v-1.8h-8.7l-1.4,1.3V44l1.3,1.3H220.7z"/>
			<path id="XMLID_270_" class="st1" d="M233.5,32.5v-9l5.1-5.1h9.4l5.1,5.1v9l-5.1,5.1h-9.4L233.5,32.5z M246.7,34.7l3.2-3.2v-7.1     l-3.2-3.2h-6.8l-3.2,3.2v7.1l3.2,3.2H246.7z M239.4,23.1h6.3l1.8,1.8v2.8l-1.2,1.1l1.2,1.3v2.3h-2.6v-1.7l-0.9-1h-2v2.7h-2.7     V23.1z M244.4,27.6l0.6-0.6v-1.2l-0.6-0.6H242v2.3H244.4z"/>
		</g>
	</g>
	<g id="XMLID_16_">
		<g id="XMLID_514_">
			<path id="XMLID_567_" class="st3" d="M104.8,72.6v-0.9h1v0.5l0.6,0.7h3.2l0.7-0.7v-2.1l-0.7-0.7h-3.6l-1.2-1.2v-2.6l1.2-1.2h4     l1.2,1.2v0.9h-1v-0.5l-0.7-0.7h-3.1l-0.7,0.7v1.9l0.7,0.7h3.6l1.2,1.2v2.8l-1.3,1.3H106L104.8,72.6z"/>
			<path id="XMLID_564_" class="st3" d="M113,72.6v-4.2l1.2-1.2h3.5l1.2,1.2v4.2l-1.2,1.2h-3.5L113,72.6z M117.3,72.9l0.7-0.7v-3.6     l-0.7-0.7h-2.6l-0.7,0.7v3.6l0.7,0.7H117.3z"/>
			<path id="XMLID_562_" class="st3" d="M120.9,64.2h1v9.6h-1V64.2z"/>
			<path id="XMLID_560_" class="st3" d="M123.9,72.6v-5.5h1v5.2l0.7,0.7h1.3l1.7-1.7v-4.2h1v6.7h-1v-1.4l-1.4,1.4h-2.1L123.9,72.6z"/>
			<path id="XMLID_558_" class="st3" d="M131.5,72.6v-4.2l1.2-1.2h3.2l1.2,1.2v0.8h-1v-0.5l-0.7-0.7h-2.4l-0.7,0.7v3.6l0.7,0.7h2.4     l0.7-0.7v-0.5h1v0.8l-1.2,1.2h-3.2L131.5,72.6z"/>
			<path id="XMLID_555_" class="st3" d="M138.8,65.6V65l0.4-0.4h0.6l0.4,0.4v0.6l-0.4,0.4h-0.6L138.8,65.6z M139,67.1h1v6.7h-1V67.1     z"/>
			<path id="XMLID_552_" class="st3" d="M142,72.6v-4.2l1.2-1.2h3.5l1.2,1.2v4.2l-1.2,1.2h-3.5L142,72.6z M146.3,72.9l0.7-0.7v-3.6     l-0.7-0.7h-2.6l-0.7,0.7v3.6l0.7,0.7H146.3z"/>
			<path id="XMLID_550_" class="st3" d="M149.8,67.1h1v1.4l1.4-1.4h2.1l1.2,1.2v5.5h-1v-5.2l-0.7-0.7h-1.4l-1.7,1.7v4.2h-1V67.1z"/>
			<path id="XMLID_547_" class="st3" d="M157.4,72.6v-4.2l1.2-1.2h3.4l1.3,1.2v2.4h-4.9v1.5l0.7,0.7h2.5l0.7-0.7v-0.5h1v0.8     l-1.2,1.2h-3.4L157.4,72.6z M162.3,69.9v-1.2l-0.7-0.7H159l-0.7,0.7v1.2H162.3z"/>
			<path id="XMLID_545_" class="st3" d="M164.7,72.7v-0.8h1v0.6l0.5,0.5h2.5l0.5-0.5v-1l-0.5-0.5h-2.9l-1.1-1.1v-1.6l1.1-1.1h3.2     l1.1,1.1V69h-1v-0.6l-0.5-0.5h-2.3l-0.5,0.5v1l0.5,0.5h2.9l1.1,1.1v1.6l-1.1,1.1h-3.3L164.7,72.7z"/>
			<path id="XMLID_542_" class="st3" d="M175.2,65.6V65l0.4-0.4h0.6l0.4,0.4v0.6l-0.4,0.4h-0.6L175.2,65.6z M175.4,67.1h1v6.7h-1     V67.1z"/>
			<path id="XMLID_540_" class="st3" d="M178.6,67.1h1v1.4l1.4-1.4h2.1l1.2,1.2v5.5h-1v-5.2l-0.7-0.7h-1.4l-1.7,1.7v4.2h-1V67.1z"/>
			<path id="XMLID_538_" class="st3" d="M186.9,68h-1.2v-0.9h1.2v-1.5l1.2-1.2h1.9v0.9h-1.5l-0.6,0.6v1.2h2.1V68h-2.1v5.8h-1V68z"/>
			<path id="XMLID_535_" class="st3" d="M190.9,72.6v-4.2l1.2-1.2h3.5l1.2,1.2v4.2l-1.2,1.2h-3.5L190.9,72.6z M195.2,72.9l0.7-0.7     v-3.6l-0.7-0.7h-2.6l-0.7,0.7v3.6l0.7,0.7H195.2z"/>
			<path id="XMLID_533_" class="st3" d="M198.7,67.1h1v1.2l1.2-1.2h1.7V68h-1.5l-1.4,1.4v4.4h-1V67.1z"/>
			<path id="XMLID_531_" class="st3" d="M203.9,67.1h1v1.3l1.3-1.3h1.6l1.1,1.1l1.1-1.1h2.1l1.2,1.2v5.5h-1v-5.2l-0.7-0.7h-1.5     l-0.9,0.9v4.9h-1v-5.2l-0.7-0.7h-1.1l-1.5,1.5v4.4h-1V67.1z"/>
			<path id="XMLID_527_" class="st3" d="M215,72.7V71l1.1-1.1h3.6v-1.3l-0.7-0.7h-2.3l-0.7,0.7v0.6h-1v-0.8l1.2-1.2h3.1l1.2,1.2v5.5     h-1v-1.2l-1.2,1.2h-2.4L215,72.7z M218.3,73l1.4-1.4v-0.8h-3.2l-0.5,0.5v1.1l0.5,0.5H218.3z M218.5,64.1h1.1l-1.2,2.1h-0.9     L218.5,64.1z"/>
			<path id="XMLID_525_" class="st3" d="M223.1,72.6V68h-1.2v-0.9h1.2v-2.2h1v2.2h2.1V68h-2.1v4.3l0.7,0.7h1.4v0.9h-1.9L223.1,72.6z     "/>
			<path id="XMLID_522_" class="st3" d="M227.7,65.6V65l0.4-0.4h0.6l0.4,0.4v0.6l-0.4,0.4h-0.6L227.7,65.6z M227.9,67.1h1v6.7h-1     V67.1z"/>
			<path id="XMLID_520_" class="st3" d="M231,72.6v-4.2l1.2-1.2h3.2l1.2,1.2v0.8h-1v-0.5L235,68h-2.4l-0.7,0.7v3.6l0.7,0.7h2.4     l0.7-0.7v-0.5h1v0.8l-1.2,1.2h-3.2L231,72.6z"/>
			<path id="XMLID_517_" class="st3" d="M238.1,72.7V71l1.1-1.1h3.6v-1.3l-0.7-0.7h-2.3l-0.7,0.7v0.6h-1v-0.8l1.2-1.2h3.1l1.2,1.2     v5.5h-1v-1.2l-1.2,1.2h-2.4L238.1,72.7z M241.4,73l1.4-1.4v-0.8h-3.2l-0.5,0.5v1.1l0.5,0.5H241.4z"/>
			<path id="XMLID_515_" class="st3" d="M245.4,72.7v-0.8h1v0.6l0.5,0.5h2.5l0.5-0.5v-1l-0.5-0.5h-2.9l-1.1-1.1v-1.6l1.1-1.1h3.2     l1.1,1.1V69h-1v-0.6l-0.5-0.5H247l-0.5,0.5v1L247,70h2.9l1.1,1.1v1.6l-1.1,1.1h-3.3L245.4,72.7z"/>
		</g>
	</g>
</g>
</svg>